<svg id="Layer_1" enable-background="new 0 0 512 512" height="512" viewBox="0 0 512 512" width="512" xmlns="http://www.w3.org/2000/svg"><g><path d="m122.253 169.335c-4.145 0-7.504 3.36-7.504 7.504v.6c0 4.144 3.359 7.504 7.504 7.504s7.504-3.36 7.504-7.504v-.6c0-4.144-3.359-7.504-7.504-7.504z"/><path d="m255.988 169.936c-4.145 0-7.504 3.36-7.504 7.504v.572c0 4.144 3.359 7.504 7.504 7.504s7.504-3.36 7.504-7.504v-.572c0-4.145-3.359-7.504-7.504-7.504z"/><path d="m389.724 170.507c-4.145 0-7.504 3.36-7.504 7.504v.6c0 4.144 3.359 7.504 7.504 7.504s7.504-3.36 7.504-7.504v-.6c-.001-4.144-3.36-7.504-7.504-7.504z"/><path d="m186.456 128.555c-4.145 0-7.504 3.36-7.504 7.504v.572c0 4.144 3.359 7.504 7.504 7.504s7.504-3.36 7.504-7.504v-.572c0-4.145-3.359-7.504-7.504-7.504z"/><path d="m325.52 129.726c-4.145 0-7.504 3.36-7.504 7.504v.572c0 4.144 3.359 7.504 7.504 7.504s7.504-3.36 7.504-7.504v-.572c0-4.144-3.359-7.504-7.504-7.504z"/><path d="m511.961 225.537c-2.595-48.741-31.957-89.245-84.91-117.133-46.008-24.232-106.755-37.19-171.058-36.463-55.864-.705-116.366 11.844-161.933 33.575-58.832 28.058-91.343 69.561-94.016 120.02-.166 3.109-.013 7.634 3.225 11.014 1.259 1.315 2.666 2.148 4.142 2.681-.276 18.317 6.754 30.502 14.579 38.369-1.53 4.398-2.341 9.06-2.341 13.751v31.636c0 9.38 3.06 18.006 8.159 24.818h-.798c-11.514 0-20.882 8.558-20.882 19.078v27.064c0 25.442 23.42 46.141 52.205 46.141h395.339c28.771 0 52.177-20.699 52.177-46.141v-27.064c0-9.264-7.258-16.999-16.844-18.716 5.262-6.867 8.425-15.636 8.425-25.18v-31.636c0-4.782-.797-9.424-2.356-13.863 7.327-9.129 10.499-21.763 9.64-38.306 1.422-.533 2.777-1.352 3.994-2.619 3.24-3.368 3.409-7.89 3.253-11.026zm-21.119 141.346v27.064c0 17.167-16.674 31.134-37.17 31.134h-395.339c-20.511 0-37.198-13.967-37.198-31.134v-27.064c0-1.925 2.412-4.07 5.875-4.07h133.283c4.145 0 7.504-3.36 7.504-7.504s-3.359-7.504-7.504-7.504h-103.349c-12.29 0-22.288-11.133-22.288-24.818v-31.636c0-1.391.12-2.776.333-4.143 13.054 7.088 29.557 10.225 45.796 10.224 4.195 0 8.369-.216 12.463-.619l70.264 30.757c4.689 2.06 8.767 2.832 12.495 2.832 4.684 0 8.814-1.22 12.902-2.639l103.677-35.849c3.572-.907 6.916-1.954 9.981-3.136 11.75-4.531 24.417-6.985 57.649-6.985 10.53 0 24.532 2.622 39.356 5.398 28.945 5.42 61.225 11.453 82.617.647.15 1.156.233 2.327.233 3.512v31.636c0 13.685-9.998 24.818-22.287 24.818h-265.204c-4.145 0-7.504 3.36-7.504 7.504s3.359 7.504 7.504 7.504h290.063c3.446.001 5.848 2.146 5.848 4.071zm-372.381-75.414c1.437-.501 2.838-1.027 4.189-1.584 28.345-11.708 65.106-9.417 86.763-1.104 7.835 3.014 17.473 5.153 28.092 6.3l-53.511 18.503c-5.958 2.068-8.934 2.67-14.457.243zm376.341-66.349-158.084-.029s0 0-.001 0c-4.144 0-7.503 3.359-7.504 7.502-.001 4.144 3.358 7.504 7.503 7.505l153.022.028c.686 14.211-2.211 24.434-8.649 30.432-14.867 13.847-48.808 7.491-78.754 1.883-15.528-2.908-30.195-5.654-42.118-5.654-35.579 0-49.607 2.808-63.048 7.99-10.333 3.985-25.342 6.27-41.179 6.27-15.813 0-30.825-2.286-41.191-6.275-23.684-9.09-64.414-12.581-97.87 1.239-19.812 8.164-58.735 10.797-80.287-5.495-9.478-7.164-14.233-17.373-14.213-30.39l279.68-.028c4.144 0 7.503-3.361 7.503-7.505s-3.36-7.503-7.505-7.503c0 0-286.894.043-287.006.043 3.556-55.661 48.333-88.386 85.421-106.073 43.613-20.8 101.684-32.817 155.371-32.113.062.001.123.001.182 0 61.9-.694 120.122 11.632 163.984 34.733 32.863 17.308 72.507 48.907 76.715 101.607.049.613.091 1.19.13 1.808-.001.002-1.49.025-2.102.025z"/></g></svg>